<svg width="96" height="96" viewBox="0 0 96 96" fill="none" xmlns="http://www.w3.org/2000/svg">
  <defs>
    <linearGradient id="cloud" x1="10" y1="18" x2="80" y2="70" gradientUnits="userSpaceOnUse">
      <stop stop-color="#E5F6FF"/>
      <stop offset="1" stop-color="#CDE9FF"/>
    </linearGradient>
  </defs>
  <rect x="6" y="22" width="84" height="46" rx="12" fill="url(#cloud)" stroke="#D0DEED" stroke-width="2"/>
  <rect x="34" y="18" width="32" height="20" rx="4" fill="#F7FAFF" stroke="#C9D6E5" stroke-width="2"/>
  <rect x="30" y="30" width="40" height="26" rx="6" fill="#F0F4FB" stroke="#C3D0E3" stroke-width="2"/>
  <path d="M42 36H58" stroke="#7C3AED" stroke-width="3" stroke-linecap="round"/>
  <path d="M42 42H52" stroke="#475569" stroke-width="3" stroke-linecap="round"/>
  <path d="M42 48H54" stroke="#475569" stroke-width="3" stroke-linecap="round"/>
  <circle cx="32" cy="48" r="7" fill="#4ADE80" stroke="#15803D" stroke-width="2"/>
  <path d="M30 59v12c0 2 1.6 3.6 3.6 3.6h2.8c2 0 3.6-1.6 3.6-3.6V58" stroke="#15803D" stroke-width="2.6" stroke-linecap="round"/>
  <path d="M30 60h12" stroke="#15803D" stroke-width="2" stroke-linecap="round"/>
  <path d="M62 50h-8l-4 12" stroke="#6366F1" stroke-width="2.6" stroke-linecap="round" stroke-linejoin="round"/>
  <circle cx="57" cy="32" r="1.8" fill="#475569"/>
</svg>
