<svg width="64" height="64" viewBox="0 0 64 64" fill="none" xmlns="http://www.w3.org/2000/svg">
  <defs>
    <linearGradient id="flare" x1="14" y1="12" x2="52" y2="50" gradientUnits="userSpaceOnUse">
      <stop stop-color="#F97316"/>
      <stop offset="1" stop-color="#EC4899"/>
    </linearGradient>
    <linearGradient id="wing" x1="18" y1="26" x2="50" y2="46" gradientUnits="userSpaceOnUse">
      <stop stop-color="#FDE68A"/>
      <stop offset="1" stop-color="#F472B6"/>
    </linearGradient>
  </defs>
  <circle cx="32" cy="32" r="30" fill="#FFF7ED"/>
  <path d="M16 40c2-10 11-22 22-22 6.8 0 10.5 4 10.5 9.8 0 10.2-8.5 17.8-19.5 17.8-6.5 0-11.9-2.6-13-5.6z" fill="url(#flare)"/>
  <path d="M24 42c6-1 12-5 15-9.5 1.6-2.4 1.4-4.7-.8-5.3-4-1-10.8 2.2-15 6.7-2 2-2.6 4.3-1.2 6 0.9 1.1 2.5 2 4 2.1z" fill="url(#wing)"/>
  <circle cx="38.5" cy="25.2" r="3.1" fill="#0F172A"/>
  <circle cx="37.7" cy="24.6" r="1" fill="white"/>
  <path d="M33 27.5c-1.5 1.4-4.2 2-5.7.6" stroke="#0F172A" stroke-width="2" stroke-linecap="round"/>
  <path d="M21 30.5c2-1 5.5-2 8.5-2" stroke="#FB923C" stroke-width="2.2" stroke-linecap="round"/>
  <path d="M46 18l1.2 3.6h3.8l-3 2.2 1.2 3.6-3.2-2.1-3.2 2.1 1.2-3.6-3-2.2h3.8L46 18z" fill="#FACC15"/>
</svg>
